<?xml version="1.0" encoding="UTF-8" standalone="no" ?>
<!DOCTYPE svg PUBLIC "-//W3C//DTD SVG 1.1//EN" "http://www.w3.org/Graphics/SVG/1.1/DTD/svg11.dtd">
<svg xmlns="http://www.w3.org/2000/svg" xmlns:xlink="http://www.w3.org/1999/xlink" version="1.1" width="256"
  height="256" viewBox="0 0 256 256" xml:space="preserve">
  <desc>Created with Fabric.js 4.6.0</desc>
  <defs>
  </defs>
  <g transform="matrix(3.63 0 0 3.63 128 128)" id="00merR_m9oZsybJWee-vH">
    <path
      style="stroke: rgb(0,0,0); stroke-width: 24; stroke-dasharray: none; stroke-linecap: butt; stroke-dashoffset: 0; stroke-linejoin: miter; stroke-miterlimit: 4; fill: rgb(205,34,64); fill-rule: nonzero; opacity: 1;"
      vector-effect="non-scaling-stroke" transform=" translate(0, 0)"
      d="M 0 -31.06796 C 17.14951 -31.06796 31.06796 -17.14951 31.06796 0 C 31.06796 17.14951 17.14951 31.06796 0 31.06796 C -17.14951 31.06796 -31.06796 17.14951 -31.06796 0 C -31.06796 -17.14951 -17.14951 -31.06796 0 -31.06796 z"
      stroke-linecap="round" />
  </g>
  <g transform="matrix(0.92 0 0 0.95 128 184.42)" id="QABnS2Iz4WLUVHHwJQS2j">
    <path
      style="stroke: rgb(0,0,0); stroke-width: 24; stroke-dasharray: none; stroke-linecap: butt; stroke-dashoffset: 0; stroke-linejoin: miter; stroke-miterlimit: 4; fill: rgb(255,255,255); fill-rule: nonzero; opacity: 1;"
      vector-effect="non-scaling-stroke" transform=" translate(0, 0)"
      d="M -120.97636 -59.21749 L 120.97635 -59.21749 C 120.97635 -59.21749 115.79827 60.01713000000001 -1.0981000000000023 59.213440000000006 C -117.99447 58.40975 -120.97637 -59.21749 -120.97637 -59.21749 z"
      stroke-linecap="round" />
  </g>
  <g transform="matrix(1.77 0 0 1.77 128 128)" id="Ue7G6vneKilVY16AFWF_W">
    <path
      style="stroke: rgb(0,0,0); stroke-width: 24; stroke-dasharray: none; stroke-linecap: butt; stroke-dashoffset: 0; stroke-linejoin: miter; stroke-miterlimit: 4; fill: rgb(255,255,255); fill-rule: nonzero; opacity: 1;"
      vector-effect="non-scaling-stroke" transform=" translate(0, 0)"
      d="M 0 -15.76355 C 8.70148 -15.76355 15.76355 -8.70148 15.76355 0 C 15.76355 8.70148 8.70148 15.76355 0 15.76355 C -8.70148 15.76355 -15.76355 8.70148 -15.76355 0 C -15.76355 -8.70148 -8.70148 -15.76355 0 -15.76355 z"
      stroke-linecap="round" />
  </g>
</svg>
